<?xml version="1.0" encoding="UTF-8" standalone="no"?>
<!-- Generator: Adobe Illustrator 22.0.1, SVG Export Plug-In . SVG Version: 6.00 Build 0)  -->

<svg
   xmlns:dc="http://purl.org/dc/elements/1.1/"
   xmlns:cc="http://creativecommons.org/ns#"
   xmlns:rdf="http://www.w3.org/1999/02/22-rdf-syntax-ns#"
   xmlns:svg="http://www.w3.org/2000/svg"
   xmlns="http://www.w3.org/2000/svg"
   xmlns:sodipodi="http://sodipodi.sourceforge.net/DTD/sodipodi-0.dtd"
   xmlns:inkscape="http://www.inkscape.org/namespaces/inkscape"
   version="1.1"
   id="Ebene_1"
   x="0px"
   y="0px"
   viewBox="0 0 226.46 105.46"
   xml:space="preserve"
   sodipodi:docname="slip.svg"
   inkscape:version="0.92.4 5da689c313, 2019-01-14"
   width="226.46001"
   height="105.46001"><metadata
   id="metadata3765"><rdf:RDF><cc:Work
       rdf:about=""><dc:format>image/svg+xml</dc:format><dc:type
         rdf:resource="http://purl.org/dc/dcmitype/StillImage" /><dc:title /></cc:Work></rdf:RDF></metadata><defs
   id="defs3763" /><sodipodi:namedview
   pagecolor="#ffffff"
   bordercolor="#666666"
   borderopacity="1"
   objecttolerance="10"
   gridtolerance="10"
   guidetolerance="10"
   inkscape:pageopacity="0"
   inkscape:pageshadow="2"
   inkscape:window-width="1918"
   inkscape:window-height="1058"
   id="namedview3761"
   showgrid="false"
   inkscape:zoom="5.5477436"
   inkscape:cx="109.05335"
   inkscape:cy="56.599588"
   inkscape:window-x="0"
   inkscape:window-y="20"
   inkscape:window-maximized="1"
   inkscape:current-layer="Ebene_1" />













<g
   id="g65"><path
     inkscape:connector-curvature="0"
     id="path3732"
     d="M 117.59479,22.273629 H 23.839778 l -3.791,22.699 c 1.178,9.671 11.432,25.312 39.088,46.09394 h 23.162 c 27.655012,-20.78194 37.910012,-36.42294 39.088012,-46.09394 z"
     style="fill:#f2f2f2;stroke:#3c3c3b;stroke-width:1.25;stroke-linecap:round;stroke-linejoin:round;stroke-miterlimit:10" /><path
     inkscape:connector-curvature="0"
     id="path3734"
     d="m 70.733778,92.550556 c -2.967,0 -8.538,-0.16 -11.706,-1.489987 v 0 c -11.336,-32.79094 -15.836,-48.28694 -38.935,-46.08694 0,0 0.2,-14.077 3.223,-22.352 v 0 h 94.847012 v 0 c 3.022,8.276 3.224,22.352 3.224,22.352 -23.100005,-2.199 -27.600005,13.296 -38.936012,46.08694 v 0 c -3.168,1.329987 -8.754,1.489987 -11.717,1.489987"
     style="fill:#ffffff" /><path
     inkscape:connector-curvature="0"
     id="path3736"
     d="M 70.733778,92.550566"
     style="fill:none;stroke:#3c3c3b;stroke-width:1.25;stroke-linecap:round;stroke-linejoin:round;stroke-miterlimit:10" /><path
     inkscape:connector-curvature="0"
     id="path3738"
     d="M 70.717778,29.773629"
     style="fill:none;stroke:#3c3c3b;stroke-width:1.25;stroke-linecap:round;stroke-linejoin:round;stroke-miterlimit:10" /><path
     inkscape:connector-curvature="0"
     id="path3740"
     d="m 19.926778,42.107629 3.088,-0.159 c 0.389,-0.011 0.77,-0.016 1.147,-0.016 20.893,0 26.394,15.948 36.381,44.908965 l 0.686,1.984984 1.115,3.108978"
     style="fill:none;stroke:#3c3c3b;stroke-width:0.75;stroke-linecap:round;stroke-linejoin:round;stroke-miterlimit:10" /><path
     inkscape:connector-curvature="0"
     id="path3742"
     d="m 79.091778,91.936556 1.115,-3.108978 0.686,-1.984984 c 9.986007,-28.960965 15.488007,-44.908965 36.381012,-44.908965 0.377,0 0.758,0.005 1.146,0.016 l 3.091,0.159"
     style="fill:none;stroke:#3c3c3b;stroke-width:0.75;stroke-linecap:round;stroke-linejoin:round;stroke-miterlimit:10" /><line
     id="line3744"
     y2="51.812626"
     x2="45.071777"
     y1="18.435661"
     x1="56.63578"
     style="fill:none;stroke:#3c3c3b;stroke-width:0.75;stroke-linecap:round;stroke-linejoin:round;stroke-miterlimit:10" /><line
     id="line3746"
     y2="49.291645"
     x2="43.111774"
     y1="18.435661"
     x1="53.799782"
     style="fill:none;stroke:#3c3c3b;stroke-width:0.75;stroke-linecap:round;stroke-linejoin:round;stroke-miterlimit:10" /><line
     id="line3748"
     y2="51.812626"
     x2="96.362793"
     y1="18.435661"
     x1="84.797783"
     style="fill:none;stroke:#3c3c3b;stroke-width:0.75;stroke-linecap:round;stroke-linejoin:round;stroke-miterlimit:10" /><line
     id="line3750"
     y2="49.281643"
     x2="98.319786"
     y1="18.435661"
     x1="87.633781"
     style="fill:none;stroke:#3c3c3b;stroke-width:0.75;stroke-linecap:round;stroke-linejoin:round;stroke-miterlimit:10" /><line
     id="line3752"
     y2="92.550446"
     x2="70.717781"
     y1="18.607662"
     x1="70.717781"
     style="fill:none;stroke:#3c3c3b;stroke-width:1.25;stroke-linecap:round;stroke-linejoin:round;stroke-miterlimit:10" /><rect
     id="rect3754"
     height="8.5039997"
     width="97.226997"
     style="fill:#ffffff"
     y="18.084663"
     x="22.102776" /><path
     inkscape:connector-curvature="0"
     id="path3756"
     d="m 70.733778,92.550556 c -2.967,0 -8.538,-0.16 -11.706,-1.489987 v 0 c -11.336,-32.79094 -15.836,-48.28694 -38.935,-46.08694 0,0 0.2,-14.077 3.223,-22.352 v 0 h 94.847012 v 0 c 3.022,8.276 3.224,22.352 3.224,22.352 -23.100005,-2.199 -27.600005,13.296 -38.936012,46.08694 v 0 c -3.168,1.329987 -8.754,1.489987 -11.717,1.489987"
     style="fill:none;stroke:#3c3c3b;stroke-width:1.25;stroke-linecap:round;stroke-linejoin:round;stroke-miterlimit:10" /><rect
     id="rect3758"
     height="8.5039997"
     width="97.226997"
     style="fill:#ffffff;stroke:#3c3c3b;stroke-width:1.25;stroke-linecap:round;stroke-linejoin:round;stroke-miterlimit:10"
     y="18.084663"
     x="22.102776" /></g>
<g
   aria-label=".js"
   style="font-style:normal;font-weight:normal;font-size:40px;line-height:25px;font-family:sans-serif;letter-spacing:0px;word-spacing:0px;fill:#000000;fill-opacity:1;stroke:none"
   id="text3798"
   transform="translate(-7.2101385,-27.466592)"><path
     d="m 134.03986,99.176257 h 8.79167 v 10.583333 h -8.79167 z"
     style="font-size:85.33333588px;line-height:71px"
     id="path3800"
     inkscape:connector-curvature="0" /><path
     d="m 160.08153,63.092922 h 7.66667 v 47.499998 q 0,8.91667 -3.41667,12.91667 -3.375,4 -10.91667,4 h -2.91666 v -6.5 h 2.04166 q 4.375,0 5.95834,-2.04167 1.58333,-2 1.58333,-8.375 z m 0,-18.166667 h 7.66667 v 9.708334 h -7.66667 z"
     style="font-size:85.33333588px;line-height:71px"
     id="path3802"
     inkscape:connector-curvature="0" /><path
     d="m 213.53987,64.467922 v 7.25 q -3.25,-1.666666 -6.75,-2.5 -3.5,-0.833333 -7.25,-0.833333 -5.70834,0 -8.58334,1.75 -2.83333,1.75 -2.83333,5.25 0,2.666667 2.04167,4.208334 2.04166,1.5 8.20833,2.875 l 2.625,0.583333 q 8.16667,1.75 11.58333,4.958334 3.45834,3.166666 3.45834,8.875 0,6.5 -5.16667,10.29167 -5.125,3.79166 -14.125,3.79166 -3.75,0 -7.83333,-0.75 -4.04167,-0.70833 -8.54167,-2.16666 v -7.91667 q 4.25,2.20833 8.375,3.33333 4.125,1.08334 8.16667,1.08334 5.41666,0 8.33333,-1.83334 2.91667,-1.875 2.91667,-5.249997 0,-3.125 -2.125,-4.791667 -2.08334,-1.666666 -9.20834,-3.208333 l -2.66666,-0.625 q -7.125,-1.5 -10.29167,-4.583334 -3.16667,-3.125 -3.16667,-8.541667 0,-6.583333 4.66667,-10.166667 4.66667,-3.583333 13.25,-3.583333 4.25,0 8,0.625 3.75,0.625 6.91667,1.875 z"
     style="font-size:85.33333588px;line-height:71px"
     id="path3804"
     inkscape:connector-curvature="0" /></g></svg>